<?xml version="1.0" encoding="iso-8859-1"?>
<!-- Generator: Adobe Illustrator 19.0.0, SVG Export Plug-In . SVG Version: 6.00 Build 0)  -->
<svg version="1.1" id="Layer_1" xmlns="http://www.w3.org/2000/svg" xmlns:xlink="http://www.w3.org/1999/xlink" x="0px" y="0px"
	 viewBox="0 0 456.383 456.383" style="enable-background:new 0 0 456.383 456.383;" xml:space="preserve">
<g>
	<path d="M318.383,100.191c0-31.981-26.019-58-58-58h-10v30h10c15.439,0,28,12.561,28,28s-12.561,28-28,28h-259v30h259
		C292.364,158.191,318.383,132.173,318.383,100.191z"/>
	<path d="M335.383,298.191h-334v30h334c15.439,0,28,12.561,28,28s-12.561,28-28,28h-10v30h10c31.981,0,58-26.019,58-58
		S367.364,298.191,335.383,298.191z"/>
	<rect x="137.383" y="213.191" width="319" height="30"/>
	<rect y="213.191" width="107.383" height="30"/>
</g>
<g>
</g>
<g>
</g>
<g>
</g>
<g>
</g>
<g>
</g>
<g>
</g>
<g>
</g>
<g>
</g>
<g>
</g>
<g>
</g>
<g>
</g>
<g>
</g>
<g>
</g>
<g>
</g>
<g>
</g>
</svg>
